P1
# Created by GIMP version 2.10.4 PNM plug-in
23 23
0000000011111110000000000000011000000011000000000011000000000001100000
0010000000000000001000001000000000000000001000010000000000000000010001
0000000000000000000100100000000000000000001010000000000000000000001100
0000000000000000000110000000000000000000001100000000000000000000011000
0000000000000000001100000000000000000000011000000000000000000000101000
0000000000000000100100000000000000000001000100000000000000000100001000
0000000000000010000010000000000000001000000011000000000001100000000001
100000001100000000000000111111100000000